PathFileType	4	(X/Y/Z)	TVC_39_Cal_03_0_static_RCNL2025.trc
DataRate	CameraRate	NumFrames	NumMarkers	Units	OrigDataRate	OrigDataStartFrame	OrigNumFrames
100	100	4	27	mm	100	110	292
Frame#	Time	R_Shoulder			L_Shoulder			C7			J_Notch			R_Elbow			L_Elbow			R_Wrist			L_Wrist			R_Asis			L_Asis			R_Psis			L_Psis			Sacral			Thoracic			Sternum			R_Thigh_Lateral			R_Knee_Lateral			R_Shank_Lateral			R_Ankle_Lateral			R_Heel			R_Toe			L_Thigh_Lateral			L_Knee_Lateral			L_Shank_Lateral			L_Ankle_Lateral			L_Heel			L_Toe		
		X1	Y1	Z1	X2	Y2	Z2	X3	Y3	Z3	X4	Y4	Z4	X5	Y5	Z5	X6	Y6	Z6	X7	Y7	Z7	X8	Y8	Z8	X9	Y9	Z9	X10	Y10	Z10	X11	Y11	Z11	X12	Y12	Z12	X13	Y13	Z13	X14	Y14	Z14	X15	Y15	Z15	X16	Y16	Z16	X17	Y17	Z17	X18	Y18	Z18	X19	Y19	Z19	X20	Y20	Z20	X21	Y21	Z21	X22	Y22	Z22	X23	Y23	Z23	X24	Y24	Z24	X25	Y25	Z25	X26	Y26	Z26	X27	Y27	Z27
110	1.09000000	-196.992554	1478.705200	6.306862	-171.344284	1471.235107	-379.488953	-233.773331	1553.469360	-195.628250	-92.500877	1420.730591	-187.935944	-166.701309	1142.899658	91.336189	-183.185379	1157.130493	-486.820007	-99.048447	905.890350	21.277699	-155.918388	898.234985	-498.781525	-163.608047	941.304810	-30.106386	-124.601242	941.400208	-322.227234	-349.721252	986.715576	-142.858292	-334.936646	981.783203	-249.814453	-342.328949	984.249390	-196.336372	-334.557220	1226.587646	-201.651306	-55.803467	1260.711182	-168.578384	-227.073364	746.904480	44.010731	-226.599823	459.417145	-13.236868	-269.004425	303.414368	36.151989	-270.930359	77.720665	-58.166748	-311.805389	60.203690	-112.332611	-123.862831	46.798359	-49.344669	-201.125412	699.431030	-407.064819	-230.397278	474.040039	-347.218628	-248.019135	342.829102	-388.744415	-261.338623	75.900726	-299.122986	-299.019623	57.832226	-238.385162	-117.056831	43.462772	-319.403137
111	1.10000000	-197.044617	1478.778320	6.201566	-171.409180	1471.283691	-379.530457	-233.902359	1553.498169	-195.666122	-92.614746	1420.734741	-187.959915	-166.726669	1142.833130	91.312759	-183.207382	1157.066284	-486.957886	-99.182526	905.862976	21.225155	-155.899017	898.229370	-498.883911	-163.629288	941.292053	-30.175745	-124.688667	941.406128	-322.239563	-349.703278	986.822632	-142.995728	-334.992676	981.686584	-249.879837	-342.347977	984.254608	-196.437782	-334.606598	1226.589355	-201.713974	-55.853241	1260.616455	-168.567627	-227.032822	746.909241	43.942719	-226.570343	459.510681	-13.343260	-268.967987	303.525452	36.127560	-270.956787	77.640488	-58.183674	-311.833160	60.048512	-112.405968	-123.748459	46.872215	-49.426254	-201.296432	699.470947	-407.175598	-230.439041	474.075500	-347.260437	-248.081680	342.820068	-388.755066	-261.312805	75.899353	-299.133850	-299.035034	57.833496	-238.389481	-117.049309	43.420479	-319.416382
112	1.11000000	-197.146088	1478.800537	6.117762	-171.546387	1471.286255	-379.536774	-234.056259	1553.515869	-195.677917	-92.741714	1420.732178	-188.042160	-166.881607	1142.796021	91.314331	-183.273865	1157.116699	-486.977509	-99.409088	905.826599	21.209786	-155.797798	898.206024	-498.969009	-163.818405	941.331726	-30.206522	-124.769051	941.396118	-322.381012	-349.854370	986.902283	-142.995026	-335.126709	981.737366	-249.916183	-342.490540	984.319824	-196.455605	-334.754852	1226.552124	-201.738083	-56.083511	1260.605957	-168.592987	-227.080048	746.932190	43.857037	-226.542084	459.588104	-13.416738	-269.171936	303.441132	36.207088	-270.899048	77.665970	-58.192219	-311.867188	60.055084	-112.413078	-123.850121	46.785717	-49.360752	-201.449661	699.428406	-407.239746	-230.471832	474.079132	-347.275024	-248.165619	342.832733	-388.774261	-261.320282	75.931091	-299.129913	-299.034149	57.829075	-238.364182	-117.061584	43.454994	-319.467285
113	1.12000000	-197.420059	1478.799072	6.116323	-171.539322	1471.299561	-379.570221	-234.181000	1553.527832	-195.804138	-92.749481	1420.683716	-188.144745	-167.108459	1142.729492	91.188126	-183.293518	1157.004517	-486.887756	-99.749027	905.800079	21.096913	-155.890823	898.242889	-499.061279	-163.869766	941.309143	-30.310175	-124.852127	941.359314	-322.453156	-350.133881	986.920288	-142.926483	-335.235138	981.652649	-249.936584	-342.684509	984.286469	-196.431534	-334.882263	1226.504517	-201.784271	-56.223473	1260.630371	-168.602859	-227.137711	746.888306	43.785412	-226.603409	459.654694	-13.435143	-269.204376	303.437378	36.145203	-270.980988	77.586441	-58.170200	-311.831696	60.176270	-112.293060	-123.875504	46.756172	-49.424984	-201.567139	699.464661	-407.318329	-230.527191	474.061432	-347.333099	-248.170731	342.836334	-388.787811	-261.338593	75.870567	-299.102692	-299.034546	57.889893	-238.362381	-117.080841	43.424568	-319.479309
